<svg width="3642" height="4259" viewBox="0 0 3642 4259" fill="none" xmlns="http://www.w3.org/2000/svg">
<path fill-rule="evenodd" clip-rule="evenodd" d="M44.2438 1032.24L1426.92 215.911L1707.59 626.78L895.837 2359.9L5.64818 1275.29L0 1279.93V1109.74C0 1077.9 16.8247 1048.43 44.2438 1032.24ZM952.081 2428.43L1760 703.499L2311.91 1511.44L1466.97 3055.77L952.081 2428.43ZM0 1394.51L858.234 2440.19L386.022 3448.37L45.0912 3252.07C17.1937 3236.01 0 3206.27 0 3174.07V1394.51ZM457.223 3484.97L416.209 3465.76L1772.43 4246.66C1800.18 4262.64 1834.33 4262.67 1862.11 4246.74L2187.71 4060.03L1480.29 3198.1L1115.68 3864.51L1045.5 3826.11L1425.57 3131.43L914.478 2508.71L457.223 3484.97ZM2035.78 114.689L1799.41 619.361L2355 1432.69L2815.55 590.91L2885.74 629.309L2405.63 1506.81L3312.77 2834.77L3642 2231.42V1115.83C3642 1084.01 3625.2 1054.55 3597.81 1038.36L2035.78 114.689ZM3642 2398.43L3363.43 2908.94L3597.52 3251.61C3625.05 3235.47 3642 3205.93 3642 3173.97V2398.43ZM3269.74 2913.61L2362.54 1585.57L1521.68 3122.44L2258.09 4019.68L2852.04 3679.09L3269.74 2913.61ZM2984.68 3603.03L3320.41 2987.78L3527.9 3291.53L2984.68 3603.03ZM1747 542.642L1966.6 73.7807L1863.02 12.5308C1834.79 -4.16561 1799.7 -4.17771 1771.46 12.4992L1495.96 175.15L1747 542.642Z" fill="url(#paint0_linear)"/>
<rect x="3233" y="2918.16" width="120.106" height="120.106" transform="rotate(-47.9289 3233 2918.16)" fill="#53CA91"/>
<rect x="2275.31" y="1511.85" width="118.66" height="118.66" transform="rotate(-48.3229 2275.31 1511.85)" fill="#56D092"/>
<rect x="1671" y="630.313" width="117.01" height="117.01" transform="rotate(-49.7557 1671 630.313)" fill="#58D493"/>
<rect x="827.727" y="2442.54" width="111.234" height="111.234" transform="rotate(-52.1338 827.727 2442.54)" fill="#49B88C"/>
<rect x="1395" y="3133.05" width="111.234" height="111.234" transform="rotate(-49.8733 1395 3133.05)" fill="#48B58B"/>
<defs>
<linearGradient id="paint0_linear" x1="3882" y1="0.000211064" x2="-234.5" y2="4746" gradientUnits="userSpaceOnUse">
<stop offset="0.229167" stop-color="#5CDB95"/>
<stop offset="0.984375" stop-color="#379683"/>
</linearGradient>
</defs>
</svg>
